<svg xmlns="http://www.w3.org/2000/svg" width="316" height="316" preserveAspectRatio="xMidYMid meet" version="1.0" viewBox="0 0 237 237"><metadata>Created by potrace 1.14, written by Peter Selinger 2001-2017</metadata><g fill="#000" stroke="none"><path d="M1450 2076 c-138 -79 -235 -107 -375 -107 -94 -1 -140 8 -233 42 -29 10 -63 19 -75 19 -81 0 -165 -61 -191 -137 -10 -28 -16 -80 -16 -128 0 -93 -25 -180 -85 -294 -37 -70 -67 -105 -163 -194 -64 -61 -87 -123 -71 -195 14 -64 48 -105 127 -152 78 -46 110 -74 175 -154 62 -76 113 -184 133 -282 25 -120 49 -154 134 -193 67 -30 100 -26 198 23 131 67 187 81 327 81 117 0 187 -12 245 -42 34 -17 103 -16 148 2 84 36 121 101 122 215 1 184 90 376 233 502 77 68 102 120 95 198 -11 107 -96 176 -208 168 -43 -3 -67 -11 -93 -31 -68 -52 -79 -77 -88 -206 -23 -335 -203 -548 -500 -592 -221 -32 -397 37 -526 208 -155 204 -177 396 -71 608 95 189 214 284 399 319 86 16 186 21 225 10 21 -6 21 -7 7 -62 -8 -32 -36 -97 -61 -147 -38 -73 -63 -107 -138 -180 -73 -72 -94 -99 -104 -134 -44 -163 131 -303 281 -226 39 21 87 79 98 122 6 21 11 72 11 114 0 93 25 181 83 294 32 62 62 101 133 170 99 97 120 138 111 206 -19 142 -169 222 -287 155z" transform="translate(0.000000,237.000000) scale(0.100000,-0.100000)"/></g></svg>